<svg width="182" height="11" viewBox="0 0 182 11" fill="none" xmlns="http://www.w3.org/2000/svg">
<path d="M0.809642 10V9.352L3.42564 5.344C3.61764 5.048 3.79764 4.764 3.96564 4.492C4.13364 4.212 4.26964 3.92 4.37364 3.616C4.48564 3.312 4.54164 2.968 4.54164 2.584C4.54164 2.064 4.43364 1.656 4.21764 1.36C4.00964 1.064 3.68564 0.916 3.24564 0.916C2.85364 0.916 2.54964 1.004 2.33364 1.18C2.11764 1.356 1.96564 1.6 1.87764 1.912C1.79764 2.216 1.75764 2.56 1.75764 2.944V3.16H0.881642V2.92C0.881642 2.32 0.961642 1.82 1.12164 1.42C1.28164 1.012 1.52964 0.704 1.86564 0.495999C2.20964 0.288 2.65764 0.184 3.20964 0.184C3.94564 0.184 4.49764 0.404 4.86564 0.844C5.23364 1.276 5.41764 1.88 5.41764 2.656C5.41764 3.048 5.36164 3.408 5.24964 3.736C5.13764 4.064 4.99364 4.38 4.81764 4.684C4.64164 4.98 4.45764 5.28 4.26564 5.584L1.84164 9.256H5.21364V10H0.809642ZM11.0619 10.12C10.4859 10.12 10.0299 9.996 9.69386 9.748C9.35786 9.5 9.11786 9.16 8.97386 8.728C8.82986 8.296 8.75786 7.804 8.75786 7.252V3.028C8.75786 2.468 8.82986 1.976 8.97386 1.552C9.12586 1.12 9.36986 0.784 9.70586 0.543999C10.0499 0.304 10.5019 0.184 11.0619 0.184C11.6379 0.184 12.0939 0.304 12.4299 0.543999C12.7739 0.784 13.0179 1.12 13.1619 1.552C13.3139 1.976 13.3899 2.468 13.3899 3.028V7.252C13.3899 7.812 13.3139 8.308 13.1619 8.74C13.0179 9.172 12.7779 9.512 12.4419 9.76C12.1059 10 11.6459 10.12 11.0619 10.12ZM11.0619 9.424C11.4379 9.424 11.7259 9.328 11.9259 9.136C12.1339 8.944 12.2779 8.692 12.3579 8.38C12.4459 8.06 12.4899 7.708 12.4899 7.324V2.968C12.4899 2.576 12.4459 2.224 12.3579 1.912C12.2779 1.592 12.1379 1.34 11.9379 1.156C11.7379 0.971999 11.4459 0.879999 11.0619 0.879999C10.6939 0.879999 10.4059 0.971999 10.1979 1.156C9.99786 1.34 9.85386 1.592 9.76586 1.912C9.68586 2.224 9.64586 2.576 9.64586 2.968V7.324C9.64586 7.708 9.68586 8.06 9.76586 8.38C9.85386 8.692 10.0019 8.944 10.2099 9.136C10.4179 9.328 10.7019 9.424 11.0619 9.424ZM18.5571 10L21.6411 0.196H22.4091L19.3491 10H18.5571ZM18.0411 5.164C17.5051 5.164 17.1251 4.992 16.9011 4.648C16.6771 4.296 16.5651 3.844 16.5651 3.292V1.936C16.5651 1.368 16.6771 0.92 16.9011 0.592C17.1251 0.263999 17.5051 0.0999994 18.0411 0.0999994C18.5771 0.0999994 18.9531 0.263999 19.1691 0.592C19.3931 0.912 19.5051 1.352 19.5051 1.912V3.304C19.5051 3.864 19.3931 4.316 19.1691 4.66C18.9531 4.996 18.5771 5.164 18.0411 5.164ZM18.0411 4.48C18.2171 4.48 18.3531 4.432 18.4491 4.336C18.5451 4.232 18.6131 4.092 18.6531 3.916C18.6931 3.74 18.7131 3.544 18.7131 3.328V1.9C18.7131 1.572 18.6651 1.304 18.5691 1.096C18.4811 0.888 18.3051 0.784 18.0411 0.784C17.7691 0.784 17.5891 0.892 17.5011 1.108C17.4131 1.316 17.3691 1.584 17.3691 1.912V3.328C17.3691 3.552 17.3891 3.752 17.4291 3.928C17.4691 4.096 17.5371 4.232 17.6331 4.336C17.7291 4.432 17.8651 4.48 18.0411 4.48ZM22.9131 10.072C22.3771 10.072 21.9971 9.9 21.7731 9.556C21.5571 9.212 21.4491 8.76 21.4491 8.2V6.856C21.4491 6.288 21.5571 5.84 21.7731 5.512C21.9971 5.184 22.3771 5.02 22.9131 5.02C23.4571 5.02 23.8371 5.18 24.0531 5.5C24.2771 5.82 24.3891 6.264 24.3891 6.832V8.224C24.3891 8.784 24.2771 9.232 24.0531 9.568C23.8371 9.904 23.4571 10.072 22.9131 10.072ZM22.9131 9.4C23.0971 9.4 23.2371 9.348 23.3331 9.244C23.4291 9.14 23.4931 9.004 23.5251 8.836C23.5651 8.66 23.5851 8.46 23.5851 8.236V6.82C23.5851 6.492 23.5411 6.224 23.4531 6.016C23.3651 5.8 23.1851 5.692 22.9131 5.692C22.6411 5.692 22.4611 5.8 22.3731 6.016C22.2851 6.224 22.2411 6.492 22.2411 6.82V8.236C22.2411 8.46 22.2611 8.66 22.3011 8.836C22.3411 9.004 22.4091 9.14 22.5051 9.244C22.6011 9.348 22.7371 9.4 22.9131 9.4ZM34.3194 10.12C33.6714 10.12 33.1634 9.996 32.7954 9.748C32.4354 9.492 32.1794 9.14 32.0274 8.692C31.8834 8.236 31.8114 7.716 31.8114 7.132V3.1C31.8114 2.508 31.8874 1.996 32.0394 1.564C32.1994 1.124 32.4594 0.784 32.8194 0.543999C33.1874 0.304 33.6874 0.184 34.3194 0.184C34.9434 0.184 35.4354 0.304 35.7954 0.543999C36.1634 0.784 36.4234 1.124 36.5754 1.564C36.7274 1.996 36.8034 2.508 36.8034 3.1V7.144C36.8034 7.728 36.7274 8.244 36.5754 8.692C36.4314 9.132 36.1794 9.48 35.8194 9.736C35.4594 9.992 34.9594 10.12 34.3194 10.12ZM34.3194 9.388C34.7434 9.388 35.0674 9.304 35.2914 9.136C35.5154 8.96 35.6674 8.72 35.7474 8.416C35.8354 8.104 35.8794 7.744 35.8794 7.336V2.932C35.8794 2.524 35.8354 2.168 35.7474 1.864C35.6674 1.56 35.5154 1.328 35.2914 1.168C35.0674 1 34.7434 0.916 34.3194 0.916C33.8874 0.916 33.5554 1 33.3234 1.168C33.0994 1.328 32.9434 1.56 32.8554 1.864C32.7754 2.168 32.7354 2.524 32.7354 2.932V7.336C32.7354 7.744 32.7754 8.104 32.8554 8.416C32.9434 8.72 33.0994 8.96 33.3234 9.136C33.5554 9.304 33.8874 9.388 34.3194 9.388ZM40.24 10V0.279999H43.732V0.964H41.152V4.624H43.3V5.296H41.152V10H40.24ZM46.789 10V0.279999H50.281V0.964H47.701V4.624H49.849V5.296H47.701V10H46.789ZM59.7711 10.12C59.2431 10.12 58.8031 10.012 58.4511 9.796C58.1071 9.572 57.8471 9.264 57.6711 8.872C57.4951 8.472 57.3871 8.008 57.3471 7.48L58.1511 7.24C58.1911 7.64 58.2631 8.004 58.3671 8.332C58.4711 8.652 58.6351 8.908 58.8591 9.1C59.0831 9.284 59.3911 9.376 59.7831 9.376C60.2151 9.376 60.5511 9.264 60.7911 9.04C61.0311 8.816 61.1511 8.46 61.1511 7.972C61.1511 7.54 61.0431 7.168 60.8271 6.856C60.6191 6.544 60.3311 6.216 59.9631 5.872L58.2471 4.228C57.9431 3.932 57.7191 3.628 57.5751 3.316C57.4311 2.996 57.3591 2.648 57.3591 2.272C57.3591 1.6 57.5591 1.084 57.9591 0.723999C58.3591 0.364 58.8911 0.184 59.5551 0.184C59.8991 0.184 60.2071 0.228 60.4791 0.316C60.7591 0.403999 60.9951 0.547999 61.1871 0.748C61.3871 0.94 61.5431 1.192 61.6551 1.504C61.7671 1.816 61.8431 2.196 61.8831 2.644L61.1031 2.848C61.0711 2.44 61.0031 2.092 60.8991 1.804C60.8031 1.508 60.6471 1.284 60.4311 1.132C60.2231 0.98 59.9311 0.904 59.5551 0.904C59.1551 0.904 58.8271 1.008 58.5711 1.216C58.3151 1.424 58.1871 1.748 58.1871 2.188C58.1871 2.452 58.2351 2.692 58.3311 2.908C58.4351 3.124 58.6151 3.356 58.8711 3.604L60.5871 5.224C60.9711 5.584 61.3031 5.984 61.5831 6.424C61.8631 6.864 62.0031 7.36 62.0031 7.912C62.0031 8.4 61.9071 8.808 61.7151 9.136C61.5311 9.464 61.2711 9.712 60.9351 9.88C60.5991 10.04 60.2111 10.12 59.7711 10.12ZM65.1706 10V0.279999H66.0826V10H65.1706ZM70.9268 10V0.987999H69.0908V0.279999H73.6268V0.987999H71.8388V10H70.9268ZM76.6035 10V0.279999H80.1195V0.987999H77.5275V4.636H79.6395V5.308H77.5275V9.316H80.1435V10H76.6035ZM84.5288 10L82.8848 0.279999H83.6648L84.9488 8.176L86.4128 0.424H87.1688L88.6688 8.188L89.8568 0.279999H90.6248L89.0528 10H88.3448L86.7968 1.984L85.2728 10H84.5288ZM93.8389 10V0.279999H94.7509V10H93.8389ZM98.395 10V0.279999H100.507C101.187 0.279999 101.715 0.399999 102.091 0.64C102.475 0.872 102.747 1.204 102.907 1.636C103.067 2.068 103.147 2.568 103.147 3.136V7C103.147 7.6 103.067 8.128 102.907 8.584C102.747 9.032 102.483 9.38 102.115 9.628C101.747 9.876 101.239 10 100.591 10H98.395ZM99.307 9.316H100.531C101.043 9.316 101.419 9.212 101.659 9.004C101.899 8.788 102.051 8.496 102.115 8.128C102.179 7.752 102.211 7.328 102.211 6.856V3.232C102.211 2.744 102.167 2.336 102.079 2.008C101.999 1.672 101.835 1.42 101.587 1.252C101.347 1.076 100.983 0.987999 100.495 0.987999H99.307V9.316ZM106.561 10V0.279999H110.077V0.987999H107.485V4.636H109.597V5.308H107.485V9.316H110.101V10H106.561ZM120.019 10.12C119.363 10.12 118.851 10.004 118.483 9.772C118.123 9.532 117.875 9.204 117.739 8.788C117.603 8.364 117.535 7.884 117.535 7.348V0.279999H118.423V7.372C118.423 7.748 118.463 8.092 118.543 8.404C118.631 8.708 118.791 8.948 119.023 9.124C119.255 9.3 119.587 9.388 120.019 9.388C120.435 9.388 120.759 9.3 120.991 9.124C121.223 8.94 121.383 8.696 121.471 8.392C121.567 8.088 121.615 7.748 121.615 7.372V0.279999H122.491V7.348C122.491 7.884 122.419 8.364 122.275 8.788C122.131 9.204 121.879 9.532 121.519 9.772C121.159 10.004 120.659 10.12 120.019 10.12ZM126.009 10V0.279999H126.669L129.765 7.828V0.279999H130.557V10H129.909L126.801 2.368V10H126.009ZM135.363 10V0.987999H133.527V0.279999H138.063V0.987999H136.275V10H135.363ZM141.076 10V0.279999H141.988V10H141.076ZM145.632 10V0.279999H146.544V9.316H149.304V10H145.632ZM158.675 10.12C158.187 10.12 157.779 10.036 157.451 9.868C157.123 9.7 156.875 9.448 156.707 9.112C156.547 8.768 156.463 8.344 156.455 7.84C156.455 7.832 156.455 7.804 156.455 7.756C156.455 7.708 156.455 7.68 156.455 7.672H157.319C157.319 8.288 157.419 8.728 157.619 8.992C157.819 9.256 158.175 9.388 158.687 9.388C158.959 9.388 159.191 9.324 159.383 9.196C159.583 9.068 159.735 8.852 159.839 8.548C159.943 8.236 159.995 7.82 159.995 7.3V5.464C159.875 5.608 159.683 5.74 159.419 5.86C159.163 5.98 158.835 6.04 158.435 6.04C157.899 6.04 157.479 5.94 157.175 5.74C156.871 5.532 156.655 5.216 156.527 4.792C156.399 4.36 156.335 3.808 156.335 3.136C156.335 2.536 156.411 2.016 156.563 1.576C156.723 1.136 156.971 0.796 157.307 0.555999C157.651 0.308 158.099 0.184 158.651 0.184C159.179 0.184 159.607 0.308 159.935 0.555999C160.263 0.796 160.503 1.144 160.655 1.6C160.807 2.048 160.883 2.588 160.883 3.22V7.096C160.883 7.688 160.811 8.212 160.667 8.668C160.531 9.124 160.303 9.48 159.983 9.736C159.663 9.992 159.227 10.12 158.675 10.12ZM158.639 5.356C158.983 5.356 159.267 5.296 159.491 5.176C159.715 5.048 159.883 4.92 159.995 4.792V3.124C159.995 2.596 159.947 2.172 159.851 1.852C159.763 1.524 159.619 1.288 159.419 1.144C159.219 0.992 158.963 0.916 158.651 0.916C158.339 0.916 158.075 0.992 157.859 1.144C157.651 1.288 157.495 1.512 157.391 1.816C157.287 2.12 157.235 2.504 157.235 2.968C157.235 3.496 157.263 3.94 157.319 4.3C157.383 4.652 157.515 4.916 157.715 5.092C157.915 5.268 158.223 5.356 158.639 5.356ZM163.871 10L166.643 0.279999H167.411L164.651 10H163.871ZM171.644 10V1.456C171.596 1.528 171.5 1.6 171.356 1.672C171.212 1.744 171.052 1.808 170.876 1.864C170.708 1.92 170.552 1.972 170.408 2.02C170.272 2.06 170.184 2.084 170.144 2.092V1.384C170.256 1.352 170.388 1.304 170.54 1.24C170.692 1.176 170.844 1.1 170.996 1.012C171.148 0.916 171.296 0.808 171.44 0.688C171.592 0.568 171.72 0.432 171.824 0.279999H172.532V10H171.644ZM176.542 10V9.352L179.158 5.344C179.35 5.048 179.53 4.764 179.698 4.492C179.866 4.212 180.002 3.92 180.106 3.616C180.218 3.312 180.274 2.968 180.274 2.584C180.274 2.064 180.166 1.656 179.95 1.36C179.742 1.064 179.418 0.916 178.978 0.916C178.586 0.916 178.282 1.004 178.066 1.18C177.85 1.356 177.698 1.6 177.61 1.912C177.53 2.216 177.49 2.56 177.49 2.944V3.16H176.614V2.92C176.614 2.32 176.694 1.82 176.854 1.42C177.014 1.012 177.262 0.704 177.598 0.495999C177.942 0.288 178.39 0.184 178.942 0.184C179.678 0.184 180.23 0.404 180.598 0.844C180.966 1.276 181.15 1.88 181.15 2.656C181.15 3.048 181.094 3.408 180.982 3.736C180.87 4.064 180.726 4.38 180.55 4.684C180.374 4.98 180.19 5.28 179.998 5.584L177.574 9.256H180.946V10H176.542Z" fill="black"/>
</svg>
